<svg width="320" height="141" viewBox="0 0 320 141" fill="none" xmlns="http://www.w3.org/2000/svg">
<g clip-path="url(#clip0_13_168)">
<path d="M276.921 58.0906C285.257 54.1539 293.468 49.9634 301.534 45.5339C302.448 45.0399 303.725 43.9203 302.402 43.0498C301.19 42.2604 298.922 42.462 297.697 43.1256C289.629 47.572 281.42 51.7457 273.084 55.6823C272.124 56.1367 270.943 57.3186 272.217 58.1664C273.49 59.0142 275.635 58.6958 276.921 58.0906Z" fill="black"/>
<path d="M250.278 69.3704C255.951 67.1301 261.611 64.854 267.26 62.5252C268.251 62.1085 269.37 60.8682 268.128 60.0412C266.822 59.1726 264.772 59.5702 263.423 60.117C257.776 62.4288 252.131 64.7237 246.442 66.9622C245.436 67.3601 244.332 68.6193 245.574 69.4463C246.896 70.3168 248.915 69.8984 250.278 69.3704Z" fill="black"/>
<path d="M219.568 81.1416C226.549 78.7091 233.468 76.0642 240.29 73.22C241.281 72.8033 242.417 71.5649 241.158 70.7359C239.899 69.907 237.785 70.2631 236.453 70.8118C229.972 73.524 223.768 75.9088 217.289 78.1592C216.449 78.4564 214.376 79.3477 215.246 80.5769C216.058 81.7139 218.462 81.5278 219.568 81.1416Z" fill="black"/>
<path d="M193.326 89.0795C198.729 87.6979 204.099 86.1585 209.415 84.493C210.267 84.2316 212.329 83.2877 211.458 82.0754C210.586 80.8631 208.255 81.1602 207.135 81.5107C201.819 83.1761 196.451 84.6987 191.047 86.0972C190.164 86.3209 188.164 87.3233 189.004 88.5148C189.844 89.7064 192.178 89.3755 193.326 89.0795Z" fill="black"/>
<path d="M163.687 94.8137C169.997 93.5876 176.302 92.4122 182.683 91.6219C183.674 91.4961 185.997 90.8217 185.795 89.4468C185.593 88.0718 183.099 88.1449 182.177 88.2615C175.797 89.0518 169.49 90.2441 163.181 91.4533C162.199 91.6485 159.854 92.2177 160.069 93.6284C160.285 95.039 162.776 94.9829 163.687 94.8137Z" fill="black"/>
<path d="M136.635 99.2023C142.552 98.7182 148.411 97.6968 154.227 96.6022C155.207 96.4238 157.554 95.8377 157.338 94.427C157.123 93.0164 154.632 93.0725 153.721 93.2417C147.889 94.3345 142.047 95.3577 136.13 95.8419C135.144 95.917 132.812 96.6759 133.018 98.017C133.231 99.4446 135.702 99.2663 136.635 99.2023Z" fill="black"/>
<path d="M99.8941 83.7935C102.252 96.0932 116.185 99.8317 127.077 99.4567C128.299 99.4088 130.6 99.0741 131.052 97.6716C131.505 96.2691 129.282 95.9283 128.388 95.9455C125.756 96.0368 124.256 95.9672 121.634 95.5123C119.582 95.174 117.24 94.5286 115.164 93.5032C110.734 91.3348 107.573 87.6695 106.627 82.7699C106.178 80.4084 99.4584 81.4677 99.896 83.7766L99.8941 83.7935Z" fill="black"/>
<path d="M121.136 52.832C112.358 57.4878 103.422 64.1105 100.481 74.0563C99.754 76.5053 106.458 76.1799 107.103 73.9954C109.7 65.259 117.383 59.2455 124.973 55.2403C125.886 54.7463 127.146 53.6247 125.841 52.7562C124.614 51.948 122.375 52.1872 121.136 52.832Z" fill="black"/>
<path d="M149.594 43.9508C143.408 44.6949 137.32 46.2203 131.472 48.338C130.633 48.6351 128.542 49.5245 129.429 50.7556C130.226 51.8738 132.662 51.7085 133.752 51.3204C136.487 50.334 139.277 49.4736 142.102 48.7542C142.454 48.6748 142.791 48.5766 143.142 48.4972C143.336 48.451 143.547 48.4068 143.741 48.3606C144.093 48.2812 144.145 48.2702 143.899 48.3274C143.652 48.3847 143.705 48.3736 144.057 48.2942C144.251 48.2481 144.461 48.2038 144.653 48.1745C145.003 48.112 145.355 48.0326 145.705 47.9702C147.158 47.7091 148.623 47.4839 150.1 47.3112C151.089 47.2023 153.414 46.511 153.212 45.1361C153.01 43.7611 150.514 43.851 149.594 43.9508Z" fill="black"/>
<path d="M150.922 74.0301C154.456 70.7227 157.704 67.0575 160.092 62.8315C162.48 58.6055 163.572 53.7175 161.222 49.2555C160.195 47.3067 153.603 48.7401 154.857 51.1084C156.954 55.0794 155.374 59.5864 153.297 63.1978C151.22 66.8093 148.016 70.2399 144.848 73.1958C143.679 74.2764 145.511 75.1883 146.403 75.325C147.971 75.5563 149.751 75.1276 150.921 74.047L150.922 74.0301Z" fill="black"/>
<path d="M104.992 101.49C117.769 96.4887 129.992 90.0382 141.097 81.9878C142.218 81.1755 142.019 80.0746 140.737 79.6022C139.323 79.0806 137.193 79.4178 135.977 80.3049C125.246 88.0902 113.486 94.2345 101.155 99.0813C100.078 99.5052 99.1378 100.681 100.287 101.565C101.534 102.496 103.7 101.992 104.992 101.49Z" fill="black"/>
<path d="M80.1443 109.074C85.1137 108.036 90.0087 106.751 94.8091 105.094C95.4699 104.862 96.2569 104.576 96.7138 104.03C97.0121 103.67 97.2134 103.112 96.8689 102.679C95.9664 101.583 93.7417 101.704 92.5463 102.114C90.3324 102.886 88.0944 103.571 85.8284 104.2C84.6954 104.515 83.5643 104.813 82.4202 105.075C81.8556 105.216 81.2742 105.354 80.7115 105.478C80.465 105.535 80.2185 105.592 79.9739 105.633C80.9392 105.435 79.8159 105.666 79.6409 105.697C78.8337 105.861 78.0057 106.057 77.3328 106.544C76.9407 106.824 76.4369 107.331 76.529 107.872C76.735 109.213 79.2337 109.244 80.1463 109.057L80.1443 109.074Z" fill="black"/>
<path d="M55.0124 111.373C59.9644 111.531 64.9292 111.28 69.8592 110.734C70.8486 110.625 73.1751 109.917 72.9711 108.559C72.7671 107.201 70.2736 107.274 69.3538 107.373C68.7801 107.444 68.1914 107.497 67.6196 107.551C67.3074 107.583 66.9971 107.599 66.6849 107.632C65.94 107.7 67.3243 107.585 66.5118 107.646C65.389 107.722 64.2832 107.801 63.1643 107.843C60.8907 107.942 58.5949 107.935 56.3238 107.862C55.5041 107.837 54.5012 108.064 53.7572 108.423C53.2675 108.658 52.5497 109.089 52.3634 109.666C51.8902 111.101 54.1738 111.363 55.0274 111.392L55.0124 111.373Z" fill="black"/>
<path d="M22.3268 103.035C29.5066 107.076 37.4574 109.478 45.6043 110.618C47.0383 110.817 49.1282 110.527 50.1214 109.34C51.1145 108.154 49.6112 107.365 48.5663 107.211C41.3289 106.209 34.2722 104.081 27.8805 100.49C26.5125 99.7169 24.5695 99.9216 23.1759 100.566C22.2889 100.977 20.925 102.258 22.308 103.05L22.3268 103.035Z" fill="black"/>
<path d="M2.87729 80.9191C5.43426 87.4581 9.46662 93.0886 14.7622 97.7176C15.229 98.1305 16.3363 98.1892 16.8853 98.1838C17.7089 98.1757 18.706 97.9993 19.4519 97.623C19.9793 97.3584 20.6556 96.9912 20.8458 96.3799C21.0301 95.8193 20.7098 95.4745 20.3198 95.1389C15.7722 91.1604 11.8746 85.6994 9.60835 79.9124C9.09213 78.5869 7.19705 78.5234 5.9911 78.7271C5.20469 78.8593 4.32401 79.0661 3.68296 79.5743C3.34358 79.8433 2.66287 80.3983 2.87923 80.9022L2.87729 80.9191Z" fill="black"/>
<path d="M285.286 44.1988C294.876 41.8777 304.554 39.9774 314.313 38.4285L310.668 37.6336C313.159 40.4178 309.188 44.7015 307.529 46.9066C305.123 50.1038 302.45 53.0822 299.562 55.8477C298.405 56.964 300.203 57.872 301.132 57.9957C302.75 58.2328 304.498 57.7833 305.72 56.6916C309.412 53.3511 312.717 49.6411 315.585 45.5558C316.857 43.7341 318.347 41.8006 318.607 39.5375C318.902 36.9705 317.529 34.7426 314.767 34.7676C312.178 34.7784 309.415 35.5562 306.86 36.0158C304.166 36.4935 301.468 37.0051 298.783 37.5523C293.484 38.6209 288.208 39.7946 282.954 41.0735C281.949 41.3175 280.035 42.3126 280.813 43.5997C281.591 44.8867 284.211 44.4518 285.322 44.1858L285.286 44.1988Z" fill="black"/>
</g>
<defs>
<clipPath id="clip0_13_168">
<rect width="309" height="106.075" fill="white" transform="translate(12.0994) rotate(6.54968)"/>
</clipPath>
</defs>
</svg>
