<svg width="83" height="18" viewBox="0 0 83 18" fill="none" xmlns="http://www.w3.org/2000/svg">
<path d="M4.512 16.92V11.328H14.016V7.296H4.512V4.896H14.376V0.839996H0V16.92H4.512Z" fill="#CA2CE4"/>
<path d="M20.5305 17.16C23.8185 17.16 25.1625 15.264 25.4265 13.248H25.6665V16.92H29.8905V4.824H25.3785V11.064C25.3785 12.624 24.8745 13.128 22.7865 13.128C20.7225 13.128 20.0745 12.6 20.0745 10.92V4.824H15.5625V12.576C15.5625 15.192 17.1465 17.16 20.5305 17.16Z" fill="#CA2CE4"/>
<path d="M36.7382 17.16C39.5702 17.16 41.0102 16.056 41.3942 13.656H41.6342V16.92H45.8582V0.839996H41.3462V7.944H41.1062C40.7462 5.928 39.4022 4.584 36.5462 4.584C32.9942 4.584 31.0022 6.936 31.0022 10.872C31.0022 14.784 33.0422 17.16 36.7382 17.16ZM35.5622 10.872C35.5622 9.264 36.2822 8.688 38.3702 8.688C40.3862 8.688 41.3462 9.024 41.3462 10.728V10.896C41.3462 12.648 40.3862 13.032 38.3702 13.032C36.2822 13.032 35.5622 12.48 35.5622 10.872Z" fill="url(#paint0_linear_17_121)"/>
<path d="M52.7929 17.16C55.6249 17.16 57.0649 16.056 57.4489 13.656H57.6889V16.92H61.9129V0.839996H57.4009V7.944H57.1609C56.8009 5.928 55.4569 4.584 52.6009 4.584C49.0489 4.584 47.0569 6.936 47.0569 10.872C47.0569 14.784 49.0969 17.16 52.7929 17.16ZM51.6169 10.872C51.6169 9.264 52.3369 8.688 54.4249 8.688C56.4409 8.688 57.4009 9.024 57.4009 10.728V10.896C57.4009 12.648 56.4409 13.032 54.4249 13.032C52.3369 13.032 51.6169 12.48 51.6169 10.872Z" fill="url(#paint1_linear_17_121)"/>
<path d="M67.8636 16.92V0.839996H63.3516V16.92H67.8636Z" fill="#71D03C"/>
<path d="M76.0487 17.16C80.1287 17.16 82.6967 15.264 82.6967 12.576V12.288H78.1847V12.552C78.1847 13.272 77.7047 13.584 75.8807 13.584C73.9607 13.584 73.3127 13.176 73.2407 11.712H82.7207C82.7687 11.28 82.7927 10.968 82.7927 10.56C82.7927 6.672 80.1287 4.584 75.9527 4.584C71.9207 4.584 69.0647 6.936 69.0647 10.872C69.0647 15.408 71.9447 17.16 76.0487 17.16ZM75.8567 8.04C77.5367 8.04 78.2567 8.4 78.4247 9.432H73.3127C73.5047 8.4 74.2007 8.04 75.8567 8.04Z" fill="#71D03C"/>
<defs>
<linearGradient id="paint0_linear_17_121" x1="4.85639e-08" y1="4.17061" x2="105.525" y2="50.164" gradientUnits="userSpaceOnUse">
<stop stop-color="#CA2CE4"/>
<stop offset="0.536458" stop-color="#EFD16B"/>
<stop offset="1" stop-color="#71D03C"/>
</linearGradient>
<linearGradient id="paint1_linear_17_121" x1="4.85639e-08" y1="4.17061" x2="105.525" y2="50.164" gradientUnits="userSpaceOnUse">
<stop stop-color="#CA2CE4"/>
<stop offset="0.536458" stop-color="#EFD16B"/>
<stop offset="1" stop-color="#71D03C"/>
</linearGradient>
</defs>
</svg>
